<svg width="40" height="40" viewBox="0 0 40 40" fill="none" xmlns="http://www.w3.org/2000/svg">
<g id="24-hours-support" clip-path="url(#clip0_24_6)">
<g id="Group">
<g id="Group_2">
<path id="Vector" d="M13.6615 23.0542L12.6547 24.0314C12.5125 24.1696 12.4324 24.3592 12.4324 24.5573V24.9743C12.4324 25.379 12.7606 25.7073 13.1655 25.7073H19.1773C19.5827 25.7073 19.9107 25.379 19.9107 24.9743V24.4345C19.9107 24.0298 19.5827 23.7014 19.1773 23.7014H15.8556L15.9472 23.6172C18.1181 21.5256 19.6547 19.8793 19.6547 17.7357C19.6547 16.0218 18.5409 14.2925 16.0515 14.2925C14.9648 14.2925 13.9006 14.6413 13.0546 15.2742C12.7799 15.4803 12.6845 15.8496 12.8259 16.1629L13.0109 16.5718C13.1007 16.7707 13.2739 16.9192 13.4846 16.977C13.694 17.0349 13.92 16.9958 14.0987 16.871C14.6427 16.4911 15.2026 16.2983 15.7636 16.2983C16.8554 16.2983 17.4088 16.8412 17.4088 17.9043C17.3942 19.345 16.1992 20.6383 13.6615 23.0542Z" fill="white"/>
</g>
<g id="Group_3">
<path id="Vector_2" d="M24.6191 14.4713C24.5995 14.4695 24.5797 14.4688 24.5602 14.4688H24.3363C24.0966 14.4688 23.8724 14.5858 23.7354 14.7819L19.2456 21.2072C19.1596 21.3304 19.1135 21.477 19.1135 21.6272V22.1422C19.1135 22.5471 19.4415 22.8753 19.8464 22.8753H23.9458V24.9745C23.9458 25.3793 24.2738 25.7075 24.6787 25.7075H25.3786C25.7832 25.7075 26.1119 25.3793 26.1119 24.9745V22.8753H26.8346C27.2394 22.8753 27.5678 22.5471 27.5678 22.1422V21.6662C27.5678 21.2616 27.2394 20.9333 26.8346 20.9333H26.1119V15.2018C26.1119 14.7972 25.7832 14.4689 25.3786 14.4689H24.6787C24.6586 14.4689 24.6386 14.4696 24.6191 14.4713ZM23.9458 20.9333H21.7322C22.2946 20.1167 23.2561 18.7154 23.9458 17.6796V20.9333Z" fill="white"/>
</g>
<g id="Group_4">
<path id="Vector_3" d="M20.0276 36.8294C11.4 36.8294 4.38089 29.8102 4.38089 21.1827C4.38089 13.0132 10.6749 6.28711 18.6682 5.59562V8.08978C18.6682 8.26696 18.766 8.42981 18.9222 8.51302C18.993 8.55081 19.0705 8.56933 19.1477 8.56933C19.2412 8.56933 19.3347 8.54193 19.4151 8.48778L25.0784 4.6828C25.2111 4.59377 25.2906 4.44449 25.2906 4.28468C25.2906 4.125 25.2111 3.97559 25.0784 3.88655L19.4151 0.0815801C19.2681 -0.0172223 19.0785 -0.0271152 18.9221 0.0564673C18.7658 0.139796 18.668 0.302649 18.668 0.479707V2.41441C8.92441 3.11351 1.20996 11.2636 1.20996 21.1826C1.20996 31.5586 9.65166 40 20.0274 40C24.8313 40 29.4047 38.19 32.905 34.9035L30.7347 32.5919C27.8244 35.3245 24.022 36.8294 20.0276 36.8294Z" fill="white"/>
</g>
<g id="Group_5">
<path id="Vector_4" d="M36.0903 11.3759C35.442 10.3157 34.6839 9.31458 33.8378 8.40088L31.5112 10.5551C32.2154 11.3155 32.8458 12.1484 33.3853 13.0303L36.0903 11.3759Z" fill="white"/>
</g>
<g id="Group_6">
<path id="Vector_5" d="M35.5316 19.0575L38.6736 18.631C38.5059 17.3956 38.2138 16.1739 37.8053 14.9995L34.8105 16.0409C35.1497 17.0161 35.3922 18.0311 35.5316 19.0575Z" fill="white"/>
</g>
<g id="Group_7">
<path id="Vector_6" d="M30.8201 5.76585C29.7997 5.05013 28.7048 4.43461 27.5655 3.93604L26.2944 6.84088C27.2411 7.25524 28.1513 7.76688 28.9994 8.36172L30.8201 5.76585Z" fill="white"/>
</g>
<g id="Group_8">
<path id="Vector_7" d="M32.115 31.1186L34.5632 33.1336C35.3552 32.1713 36.0535 31.1275 36.6386 30.031L33.8413 28.5381C33.3548 29.4498 32.774 30.318 32.115 31.1186Z" fill="white"/>
</g>
<g id="Group_9">
<path id="Vector_8" d="M35.6281 22.3926C35.5492 23.4272 35.3667 24.4554 35.0862 25.4484L38.1374 26.3111C38.4755 25.1156 38.6949 23.8784 38.7901 22.6342L35.6281 22.3926Z" fill="white"/>
</g>
</g>
</g>
<defs>
<clipPath id="clip0_24_6">
<rect width="40" height="40" fill="white"/>
</clipPath>
</defs>
</svg>
