<svg width="16" height="16" viewBox="0 0 16 16" fill="none" xmlns="http://www.w3.org/2000/svg">
<g id="down">
<g id="16">
<path id="Vector" d="M7.99996 10.6666C7.91222 10.6671 7.82524 10.6503 7.74402 10.6172C7.66279 10.584 7.58892 10.5351 7.52662 10.4733L3.52663 6.4733C3.40109 6.34776 3.33057 6.1775 3.33057 5.99996C3.33057 5.82243 3.40109 5.65216 3.52663 5.52663C3.65216 5.40109 3.82243 5.33057 3.99996 5.33057C4.17749 5.33057 4.34776 5.40109 4.47329 5.52663L7.99996 9.05997L11.5266 5.53329C11.6542 5.42408 11.8182 5.36701 11.986 5.37349C12.1538 5.37997 12.3129 5.44952 12.4317 5.56825C12.5504 5.68698 12.6199 5.84614 12.6264 6.01393C12.6329 6.18171 12.5758 6.34576 12.4666 6.4733L8.46662 10.4733C8.34245 10.5965 8.17485 10.6659 7.99996 10.6666Z" fill="#100D22"/>
</g>
</g>
</svg>
