<svg width="39" height="40" viewBox="0 0 39 40" fill="none" xmlns="http://www.w3.org/2000/svg">
<g id="verified" clip-path="url(#clip0_24_51)">
<g id="Group">
<path id="Vector" d="M35.0138 6.47702L20.0842 0.119443C19.7102 -0.0397754 19.2898 -0.0398535 18.9158 0.119443L3.98615 6.47702C3.41753 6.71921 3.04688 7.28858 3.04688 7.92007V15.6486C3.04688 26.2902 9.31803 35.8627 18.9243 39.8841C19.2933 40.0386 19.7067 40.0386 20.0757 39.8841C29.6818 35.8627 35.9531 26.2903 35.9531 15.6486V7.92007C35.9531 7.28858 35.5826 6.71921 35.0138 6.47702ZM32.9062 15.6486C32.9062 24.6951 27.7266 33.023 19.5 36.7403C11.4933 33.1223 6.09375 24.9402 6.09375 15.6486V8.96319L19.5 3.25429L32.9062 8.96319V15.6486ZM17.8161 20.9153L24.3642 14.1994C24.9591 13.5893 25.9237 13.5892 26.5186 14.1994C27.1136 14.8097 27.1135 15.799 26.5186 16.4091L18.8934 24.2298C18.2983 24.8401 17.3337 24.8399 16.7389 24.2298L12.4814 19.8631C11.8864 19.2529 11.8864 18.2636 12.4814 17.6534C13.0763 17.0433 14.0409 17.0432 14.6358 17.6534L17.8161 20.9153Z" fill="white"/>
</g>
</g>
<defs>
<clipPath id="clip0_24_51">
<rect width="39" height="40" fill="white"/>
</clipPath>
</defs>
</svg>
